<?xml version="1.0" encoding="utf-8"?>
<!-- Generator: Adobe Illustrator 24.0.2, SVG Export Plug-In . SVG Version: 6.00 Build 0)  -->
<svg version="1.1" id="Слой_1" xmlns="http://www.w3.org/2000/svg" xmlns:xlink="http://www.w3.org/1999/xlink" x="0px" y="0px"
	 width="48px" height="48px" viewBox="0 0 48 48" style="enable-background:new 0 0 48 48;" xml:space="preserve">
<style type="text/css">
	.st0{fill:#546E7A;}
	.st1{fill:#3498DB;}
</style>
<polygon class="st0" points="38,33 38,5 34,5 34,33 28,33 36,43 44,33 "/>
<g>
	<path class="st1" d="M21.8,21.2h-3l-1.2-3.6h-5.9l-1.2,3.6H8.1l5.1-15.3h3.4L21.8,21.2z M16.9,15.3l-2.2-6.8l-2.2,6.8H16.9z"/>
</g>
<g>
	<path class="st1" d="M17.8,36.6h-3.9L11.1,43H8.3l3.2-6.9c-1.9-0.7-2.8-2-2.8-3.9c0-1.4,0.5-2.5,1.4-3.3c0.9-0.8,2.2-1.2,3.7-1.2
		h6.7V43h-2.8V36.6z M17.8,29.9h-3.5c-0.9,0-1.5,0.2-2,0.6c-0.5,0.4-0.7,0.9-0.7,1.6c0,0.7,0.2,1.2,0.7,1.7c0.5,0.5,1.2,0.7,2.2,0.7
		h3.3V29.9z"/>
</g>
</svg>
