<?xml version="1.0" encoding="utf-8"?>
<!-- Generator: Adobe Illustrator 24.0.2, SVG Export Plug-In . SVG Version: 6.00 Build 0)  -->
<svg version="1.1"
	 id="svg2" inkscape:export-filename="/home/alecive/Scrivania/firefoxTest1.png" inkscape:export-xdpi="100" inkscape:export-ydpi="100" inkscape:version="0.48.3.1 r9886" sodipodi:docname="dialog-close.svg" xmlns:cc="http://creativecommons.org/ns#" xmlns:dc="http://purl.org/dc/elements/1.1/" xmlns:inkscape="http://www.inkscape.org/namespaces/inkscape" xmlns:rdf="http://www.w3.org/1999/02/22-rdf-syntax-ns#" xmlns:sodipodi="http://sodipodi.sourceforge.net/DTD/sodipodi-0.dtd" xmlns:svg="http://www.w3.org/2000/svg"
	 xmlns="http://www.w3.org/2000/svg" xmlns:xlink="http://www.w3.org/1999/xlink" x="0px" y="0px" viewBox="0 0 512 512"
	 style="enable-background:new 0 0 512 512;" xml:space="preserve">
<style type="text/css">
	.st0{fill:#2980B9;}
	.st1{fill:#3498DB;}
</style>
<g>
	<path id="path3341_1_" inkscape:connector-curvature="0" class="st0" d="M246.9,407.4c-3.3-1.6-41.3-40.1-42.5-43.1
		c-1.3-3.2-1.3-9.3,0-12.6c0.7-1.7,12.4-13.9,37.5-39c38.5-38.6,37.9-37.9,37.9-44c0-6.1,0.6-5.3-38.2-44.3
		c-39.8-40-38.2-38-38.2-45.6c0-1.9,0.6-4.6,1.3-6.1c1.8-3.7,40.1-41.8,43.5-43.3c1.4-0.6,4-1,5.7-1c7.5,0,5.6-1.5,45.5,38.2
		c39,38.8,38.2,38.2,44.3,38.2c6.1,0,5.3,0.6,44-37.9c25.2-25.1,37.3-36.8,39-37.5c3.2-1.3,9.3-1.3,12.6,0
		c3,1.3,41.5,39.4,43.1,42.7c1.2,2.5,1.4,10.7,0.3,13.6c-0.4,1-17.1,18.3-37.1,38.4c-38.8,38.9-37.9,37.8-37.9,44.3
		c0,6.4-0.9,5.4,37.5,44c19.8,19.9,36.5,37.2,37.1,38.3c0.7,1.4,1.1,3.9,1.1,7.5c0,4.7-0.2,5.7-2,8.3c-2.5,3.9-38.3,39.4-41.1,40.8
		c-2.9,1.5-11.7,1.5-14.6,0c-1.2-0.6-18.4-17.3-38.3-37.1c-38.5-38.4-37.5-37.5-44-37.5c-6.5,0-5.4-0.9-44.3,37.9
		c-20.1,20-37.4,36.7-38.4,37.1C257.8,408.8,249.3,408.6,246.9,407.4L246.9,407.4z"/>
	<path id="path3341" inkscape:connector-curvature="0" class="st1" d="M72.3,382.4c-3.3-1.6-41.3-40.1-42.5-43.1
		c-1.3-3.2-1.3-9.3,0-12.6c0.7-1.7,12.4-13.9,37.5-39c38.5-38.6,37.9-37.9,37.9-44c0-6.1,0.6-5.3-38.2-44.3
		c-39.8-40-38.2-38-38.2-45.6c0-1.9,0.6-4.6,1.3-6.1c1.8-3.7,40.1-41.8,43.5-43.3c1.4-0.6,4-1,5.7-1c7.5,0,5.6-1.5,45.5,38.2
		c39,38.8,38.2,38.2,44.3,38.2c6.1,0,5.3,0.6,44-37.9c25.2-25.1,37.3-36.8,39-37.5c3.2-1.3,9.3-1.3,12.6,0
		c3,1.3,41.5,39.4,43.1,42.7c1.2,2.5,1.4,10.7,0.3,13.6c-0.4,1-17.1,18.3-37.1,38.4c-38.8,38.9-37.9,37.8-37.9,44.3
		c0,6.4-0.9,5.4,37.5,44c19.8,19.9,36.5,37.2,37.1,38.3c0.7,1.4,1.1,3.9,1.1,7.5c0,4.7-0.2,5.7-2,8.3c-2.5,3.9-38.3,39.4-41.1,40.8
		c-2.9,1.5-11.7,1.5-14.6,0c-1.2-0.6-18.4-17.3-38.3-37.1c-38.5-38.4-37.5-37.5-44-37.5c-6.5,0-5.4-0.9-44.3,37.9
		c-20.1,20-37.4,36.7-38.4,37.1C83.1,383.8,74.7,383.6,72.3,382.4L72.3,382.4z"/>
</g>
</svg>
