<?xml version="1.0" encoding="UTF-8" standalone="no"?>
<!-- Created with Inkscape (http://www.inkscape.org/) -->

<svg
   xmlns:dc="http://purl.org/dc/elements/1.1/"
   xmlns:cc="http://creativecommons.org/ns#"
   xmlns:rdf="http://www.w3.org/1999/02/22-rdf-syntax-ns#"
   xmlns:svg="http://www.w3.org/2000/svg"
   xmlns="http://www.w3.org/2000/svg"
   xmlns:xlink="http://www.w3.org/1999/xlink"
   xmlns:sodipodi="http://sodipodi.sourceforge.net/DTD/sodipodi-0.dtd"
   xmlns:inkscape="http://www.inkscape.org/namespaces/inkscape"
   inkscape:export-ydpi="100"
   inkscape:export-xdpi="100"
   inkscape:export-filename="/home/alecive/Scrivania/firefoxTest1.png"
   sodipodi:docname="dialog-close.svg"
   inkscape:version="0.48.3.1 r9886"
   version="1.1"
   id="svg2"
   height="512"
   width="512">
  <path
     inkscape:connector-curvature="0"
     id="path3341"
     d="m 159.58558,394.93197 c -3.28337,-1.62029 -41.3165,-40.11297 -42.54215,-43.05619 -1.34094,-3.22009 -1.34316,-9.32607 -0.005,-12.55457 0.71826,-1.73232 12.37422,-13.87247 37.47649,-39.0333 38.53634,-38.6262 37.89971,-37.88781 37.89971,-43.95802 0,-6.059 0.63256,-5.32561 -38.20557,-44.29616 -39.8389,-39.97476 -38.21944,-38.03921 -38.19449,-45.64872 0.007,-1.87136 0.57743,-4.5894 1.27931,-6.08649 1.75507,-3.74354 40.05288,-41.8385 43.48775,-43.25742 1.38301,-0.57131 3.97,-1.03704 5.74888,-1.03496 7.4592,0.008 5.62876,-1.52813 45.50546,38.20588 38.97409,38.83462 38.24062,38.20212 44.30016,38.20212 6.07077,0 5.3323,0.63657 43.962,-37.89628 25.16309,-25.09999 37.30434,-36.75491 39.03682,-37.4731 3.22879,-1.33849 9.33533,-1.33627 12.5557,0.005 3.03449,1.26341 41.52929,39.36958 43.08706,42.65206 1.19198,2.51167 1.37724,10.7241 0.30615,13.57146 -0.39388,1.04709 -17.10519,18.33732 -37.13624,38.42277 -38.79677,38.9021 -37.88997,37.84198 -37.88997,44.29616 0,6.44844 -0.87387,5.42453 37.5173,43.95802 19.82596,19.89946 36.53722,37.15478 37.13612,38.34514 0.72485,1.44068 1.08893,3.9402 1.08893,7.47573 0,4.70806 -0.22155,5.65292 -1.95038,8.31798 -2.52402,3.89084 -38.29406,39.37431 -41.1326,40.80304 -2.93468,1.47714 -11.67252,1.47753 -14.60845,6.6e-4 -1.19048,-0.59883 -18.44735,-17.30859 -38.34862,-37.13277 -38.53696,-38.38769 -37.51297,-37.51391 -43.96198,-37.51391 -6.45475,0 -5.39455,-0.90671 -44.30017,37.88655 -20.08725,20.02925 -37.37904,36.73905 -38.42624,37.13289 -2.83679,1.06692 -11.26511,0.86179 -13.68645,-0.3331 z"
     style="fill:#333333;fill-opacity:1" />
</svg>
