<?xml version="1.0" encoding="utf-8"?>
<!-- Generator: Adobe Illustrator 24.0.2, SVG Export Plug-In . SVG Version: 6.00 Build 0)  -->
<svg version="1.1" id="图层_1" xmlns="http://www.w3.org/2000/svg" xmlns:xlink="http://www.w3.org/1999/xlink" x="0px" y="0px"
	 width="256px" height="256px" viewBox="0 0 256 256" style="enable-background:new 0 0 256 256;" xml:space="preserve">
<style type="text/css">
	.st0{fill:url(#SVGID_1_);}
	.st1{opacity:0.2;fill:#2C2C2C;}
	.st2{fill:url(#SVGID_2_);}
	.st3{fill:url(#SVGID_3_);}
	.st4{fill:url(#SVGID_4_);}
	.st5{fill:url(#SVGID_5_);}
	.st6{fill:url(#SVGID_6_);}
	.st7{fill:url(#SVGID_7_);}
	.st8{fill:url(#SVGID_8_);}
	.st9{fill:#2C2C2C;}
	.st10{opacity:0.2;fill:#111111;}
</style>
<g>
	<g>
		<linearGradient id="SVGID_1_" gradientUnits="userSpaceOnUse" x1="34.8027" y1="143.5095" x2="191.7301" y2="143.5095">
			<stop  offset="0" style="stop-color:#FEFEFE"/>
			<stop  offset="1" style="stop-color:#E2E2E2"/>
		</linearGradient>
		<path class="st0" d="M34.8,212.8l5.9-50.5c0.3-2.4,1.6-6.1,3.1-8.1L114,53.3c1.4-2.1,4.1-2.6,6.1-1.3l70,48.7
			c1.9,1.4,2.3,4.1,0.8,6.1l-70.2,100.9c-1.4,2.1-4.3,4.7-6.5,5.8l-42.7,22.2"/>
		<path class="st1" d="M190.9,103.5l-70.2,100.9c-1.4,2.1-4.3,4.7-6.5,5.8l-49,25.6l-27.5-16.2l-0.4,3.1l27.9,16.5l49-25.6
			c2.2-1.1,5.1-3.7,6.5-5.8l70.2-100.9c0.9-1.4,1.1-3,0.6-4.3C191.3,102.8,191.1,103.2,190.9,103.5z"/>
		<linearGradient id="SVGID_2_" gradientUnits="userSpaceOnUse" x1="34.8027" y1="224.2632" x2="71.4253" y2="224.2632">
			<stop  offset="0" style="stop-color:#FEFEFE"/>
			<stop  offset="1" style="stop-color:#E2E2E2"/>
		</linearGradient>
		<path class="st2" d="M71.4,235.8l-36.6-23L71.4,235.8z"/>
		
			<linearGradient id="SVGID_3_" gradientUnits="userSpaceOnUse" x1="96.3809" y1="274.0939" x2="33.6415" y2="265.5385" gradientTransform="matrix(-0.8051 -0.5609 -0.3563 0.5115 289.9423 31.4339)">
			<stop  offset="0" style="stop-color:#F9AA2D"/>
			<stop  offset="1" style="stop-color:#E09115"/>
		</linearGradient>
		<path class="st3" d="M178.5,65.8L194.6,77c6.3,4.4,9.2,11.3,6.4,15.3L119.7,209l-27.6-19.2L178.5,65.8z"/>
		
			<linearGradient id="SVGID_4_" gradientUnits="userSpaceOnUse" x1="120.4475" y1="272.7102" x2="77.6689" y2="265.5804" gradientTransform="matrix(-0.8051 -0.5609 -0.3563 0.5115 289.9423 31.4339)">
			<stop  offset="0" style="stop-color:#F9AA2D"/>
			<stop  offset="1" style="stop-color:#E09115"/>
		</linearGradient>
		<path class="st4" d="M178.5,65.8l-36.7-25.6c6.3,4.4,9.2,11.2,6.4,15.2L66.9,172.2l25.2,17.6L178.5,65.8z"/>
		
			<linearGradient id="SVGID_5_" gradientUnits="userSpaceOnUse" x1="135.9192" y1="267.889" x2="103.16" y2="269.3133" gradientTransform="matrix(-0.8051 -0.5609 -0.3563 0.5115 289.9423 31.4339)">
			<stop  offset="0" style="stop-color:#F9AA2D"/>
			<stop  offset="1" style="stop-color:#E09115"/>
		</linearGradient>
		<path class="st5" d="M140.7,39.5l12.6,8.8L66.9,172.2l-24.1-16.8l81.2-116.6C126.9,34.8,134.4,35.1,140.7,39.5z"/>
		
			<linearGradient id="SVGID_6_" gradientUnits="userSpaceOnUse" x1="86.4554" y1="169.4125" x2="86.4554" y2="247.8182" gradientTransform="matrix(-0.8051 -0.5609 -0.6015 0.8634 379.3615 -97.5621)">
			<stop  offset="0" style="stop-color:#F15454"/>
			<stop  offset="1" style="stop-color:#D93B3B"/>
		</linearGradient>
		<path class="st6" d="M166.3,2.3L220.2,40c6.3,4.4,7.6,13.5,2.9,20.2L206,84.8l-76.9-53.6l17.2-24.6C151-0.1,160-2,166.3,2.3z"/>
		
			<linearGradient id="SVGID_7_" gradientUnits="userSpaceOnUse" x1="134.2139" y1="237.8277" x2="48.6818" y2="237.8277" gradientTransform="matrix(-0.8051 -0.5609 -0.6015 0.8634 379.3615 -97.5621)">
			<stop  offset="0" style="stop-color:#FEFEFE"/>
			<stop  offset="1" style="stop-color:#E2E2E2"/>
		</linearGradient>
		<polygon class="st7" points="201.8,93.3 122.6,38.2 131.6,25.3 210.8,80.4 		"/>
		
			<linearGradient id="SVGID_8_" gradientUnits="userSpaceOnUse" x1="59.2151" y1="201.1962" x2="104.4712" y2="256.2029" gradientTransform="matrix(-0.8051 -0.5609 -0.6015 0.8634 379.3615 -97.5621)">
			<stop  offset="0" style="stop-color:#FEFEFE"/>
			<stop  offset="1" style="stop-color:#E2E2E2"/>
		</linearGradient>
		<polygon class="st8" points="206,87.2 126.9,32.1 131.6,25.3 210.8,80.4 		"/>
		<path class="st9" d="M57.6,222.3c5.5,3.8,10.1,8.4,13.8,13.4l-37.9,19.7c-2.2,1.2-3.7,0.1-3.4-2.2l4.7-40.5
			C42.6,214.2,50.4,217.3,57.6,222.3z"/>
		<path class="st10" d="M33.5,252.2c-1.6,0.8-2.7,0.6-3.2-0.6l-0.2,1.6c-0.3,2.4,1.3,3.4,3.4,2.2l37.9-19.7
			c-0.6-0.8-1.3-1.6-1.9-2.3L33.5,252.2z"/>
	</g>
</g>
</svg>
