<?xml version="1.0" encoding="utf-8"?>
<!-- Generator: Adobe Illustrator 24.0.2, SVG Export Plug-In . SVG Version: 6.00 Build 0)  -->
<svg version="1.0"
	 id="Слой_1" xmlns:cc="http://creativecommons.org/ns#" xmlns:dc="http://purl.org/dc/elements/1.1/" xmlns:rdf="http://www.w3.org/1999/02/22-rdf-syntax-ns#"
	 xmlns="http://www.w3.org/2000/svg" xmlns:xlink="http://www.w3.org/1999/xlink" x="0px" y="0px" width="24px" height="24px"
	 viewBox="0 0 24 24" enable-background="new 0 0 24 24" xml:space="preserve">
<g>
	<path fill="#95A5A6" stroke="#95A5A6" stroke-width="0.25" stroke-miterlimit="10" d="M5.5,3.5c-1,0-1.9,0.7-1.9,1.5v6.2v3.1V19
		c0,0.9,0.8,1.5,1.9,1.5h13c1,0,1.9-0.7,1.9-1.5v-4.6v-3.1V8.1l-5.6-4.6H5.5z"/>
	<path fill="#FFFFFF" stroke="#95A5A6" stroke-width="0.25" stroke-miterlimit="10" d="M5.5,3.5c-1,0-1.9,0.7-1.9,1.5v6.2v3.1V19
		c0,0.9,0.8,1.5,1.9,1.5h13c1,0,1.9-0.7,1.9-1.5v-4.6v-3.1V8.1l-5.6-4.6H5.5z"/>
	<path fill="#95A5A6" d="M20.4,8.1l-5.6-4.6v3.1c0,0.9,0.8,1.5,1.9,1.5H20.4z"/>
</g>
</svg>
