<?xml version="1.0" encoding="utf-8"?>
<!-- Generator: Adobe Illustrator 24.0.2, SVG Export Plug-In . SVG Version: 6.00 Build 0)  -->
<svg version="1.1"
	 id="Слой_1" xmlns:cc="http://creativecommons.org/ns#" xmlns:dc="http://purl.org/dc/elements/1.1/" xmlns:rdf="http://www.w3.org/1999/02/22-rdf-syntax-ns#"
	 xmlns="http://www.w3.org/2000/svg" xmlns:xlink="http://www.w3.org/1999/xlink" x="0px" y="0px" viewBox="0 0 24 24"
	 style="enable-background:new 0 0 24 24;" xml:space="preserve">
<style type="text/css">
	.st0{fill:#2980B9;}
	.st1{fill:#3498DB;}
	.st2{fill:#ECF0F1;}
</style>
<g>
	<rect x="15.8" y="13.6" transform="matrix(0.7071 -0.7071 0.7071 0.7071 -7.634 17.7722)" class="st0" width="3.6" height="9"/>
	<path class="st0" d="M4.3,4.8c-3.1,3.2-3.1,8.3,0,11.4s8.3,3.1,11.4,0s3.2-8.3,0-11.4S7.4,1.7,4.3,4.8z M6.2,6.7
		c2.1-2.1,5.5-2.1,7.7,0c2.1,2.2,2.1,5.6,0,7.7s-5.5,2.1-7.7,0C4.1,12.3,4.1,8.9,6.2,6.7z"/>
	<rect x="15.8" y="12.6" transform="matrix(0.7071 -0.7071 0.7071 0.7071 -6.9269 17.4793)" class="st1" width="3.6" height="9"/>
	<rect x="13.6" y="13.6" transform="matrix(0.7071 -0.7071 0.7071 0.7071 -6.04 15.293)" class="st0" width="3.6" height="2.7"/>
	<path class="st1" d="M4.3,3.8c-3.1,3.2-3.1,8.3,0,11.4s8.3,3.1,11.4,0s3.2-8.3,0-11.4S7.4,0.7,4.3,3.8z M6.2,5.7
		c2.1-2.1,5.5-2.1,7.7,0c2.1,2.2,2.1,5.6,0,7.7s-5.5,2.1-7.7,0C4.1,11.3,4.1,7.9,6.2,5.7z"/>
	<path class="st2" d="M15.8,9.7c0,3.2-2.6,5.9-5.9,5.9s-5.8-2.6-5.8-5.9s2.6-5.8,5.8-5.8S15.8,6.4,15.8,9.7z"/>
	<rect x="6.8" y="9.2" class="st0" width="6.3" height="0.9"/>
</g>
</svg>
