<?xml version="1.0" encoding="utf-8"?>
<!-- Generator: Adobe Illustrator 24.0.2, SVG Export Plug-In . SVG Version: 6.00 Build 0)  -->
<svg version="1.1"
	 id="Слой_1" xmlns:cc="http://creativecommons.org/ns#" xmlns:dc="http://purl.org/dc/elements/1.1/" xmlns:rdf="http://www.w3.org/1999/02/22-rdf-syntax-ns#"
	 xmlns="http://www.w3.org/2000/svg" xmlns:xlink="http://www.w3.org/1999/xlink" x="0px" y="0px" viewBox="0 0 24 24"
	 style="enable-background:new 0 0 24 24;" xml:space="preserve">
<style type="text/css">
	.st0{fill:#2980B9;}
	.st1{fill:#3498DB;}
	.st2{fill:#ECF0F1;}
</style>
<g>
	<rect x="15.8" y="13.6" transform="matrix(0.7071 -0.7071 0.7071 0.7071 -7.652 17.7714)" class="st0" width="3.6" height="9"/>
	<path class="st0" d="M4.3,4.8c-3.1,3.1-3.1,8.3,0,11.4s8.3,3.2,11.4,0s3.2-8.3,0-11.4S7.4,1.6,4.3,4.8z M6.2,6.7
		c2.1-2.1,5.5-2.1,7.7,0c2.1,2.2,2.1,5.6,0,7.6s-5.5,2.1-7.7,0C4.1,12.3,4.1,8.8,6.2,6.7z"/>
	<rect x="15.8" y="12.6" transform="matrix(0.7071 -0.7071 0.7071 0.7071 -6.9449 17.4785)" class="st1" width="3.6" height="9"/>
	<rect x="13.6" y="13.6" transform="matrix(0.7071 -0.7071 0.7071 0.7071 -6.0593 15.295)" class="st0" width="3.7" height="2.7"/>
	<path class="st1" d="M4.3,3.8c-3.1,3.1-3.1,8.3,0,11.4s8.3,3.2,11.4,0s3.2-8.3,0-11.4S7.4,0.6,4.3,3.8z M6.2,5.7
		c2.1-2.1,5.5-2.1,7.7,0c2.1,2.2,2.1,5.6,0,7.6s-5.5,2.1-7.7,0C4.1,11.3,4.1,7.8,6.2,5.7z"/>
	<path class="st2" d="M15.8,9.6c0,3.2-2.6,5.8-5.8,5.8s-5.9-2.6-5.9-5.8S6.7,3.8,10,3.8S15.8,6.4,15.8,9.6z"/>
	<path id="rect3140" class="st0" d="M7.8,7.2L6.4,8.3l0,0h1.1v3.8h1.1V7.2H7.8z"/>
	<path id="path3080" class="st0" d="M12.2,7.2l-1.4,1.1l0,0h1.1v3.8H13V7.2H12.2z"/>
	<rect id="rect3090" x="9.4" y="8.8" class="st0" width="1.1" height="0.5"/>
	<rect id="rect3862" x="9.4" y="11" class="st0" width="1.1" height="0.5"/>
</g>
</svg>
