<?xml version="1.0" encoding="utf-8"?>
<!-- Generator: Adobe Illustrator 24.0.2, SVG Export Plug-In . SVG Version: 6.00 Build 0)  -->
<svg version="1.1"
	 id="Слой_1" xmlns:cc="http://creativecommons.org/ns#" xmlns:dc="http://purl.org/dc/elements/1.1/" xmlns:rdf="http://www.w3.org/1999/02/22-rdf-syntax-ns#"
	 xmlns="http://www.w3.org/2000/svg" xmlns:xlink="http://www.w3.org/1999/xlink" x="0px" y="0px" viewBox="0 0 24 24"
	 style="enable-background:new 0 0 24 24;" xml:space="preserve">
<style type="text/css">
	.st0{fill:#2980B9;}
	.st1{fill:#3498DB;}
	.st2{fill:#ECF0F1;}
</style>
<g>
	<path class="st0" d="M22,12.5c0,5.5-4.5,10-10,10S2,18,2,12.5s4.5-10,10-10S22,7,22,12.5z"/>
	<path class="st1" d="M22,11.5c0,5.5-4.5,10-10,10S2,17,2,11.5s4.5-10,10-10S22,6,22,11.5z"/>
	<path class="st0" d="M13,6h-2v9l-3-4l-2,1l6,7l6-7l-2-1l-3,4V6z"/>
	<path class="st2" d="M13,5h-2v9l-3-4l-2,1l6,7l6-7l-2-1l-3,4V5z"/>
</g>
</svg>
