<?xml version="1.0" encoding="utf-8"?>
<!-- Generator: Adobe Illustrator 24.0.2, SVG Export Plug-In . SVG Version: 6.00 Build 0)  -->
<svg version="1.1"
	 id="Слой_1" xmlns:cc="http://creativecommons.org/ns#" xmlns:dc="http://purl.org/dc/elements/1.1/" xmlns:rdf="http://www.w3.org/1999/02/22-rdf-syntax-ns#"
	 xmlns="http://www.w3.org/2000/svg" xmlns:xlink="http://www.w3.org/1999/xlink" x="0px" y="0px" viewBox="0 0 24 24"
	 style="enable-background:new 0 0 24 24;" xml:space="preserve">
<style type="text/css">
	.st0{fill:#2980B9;}
	.st1{fill:#3498DB;}
	.st2{fill:#ECF0F1;}
</style>
<g transform="translate(0 -1028.4)">
	<path class="st0" d="M2,1040.9c0,5.5,4.5,10,10,10c5.5,0,10-4.5,10-10c0-5.5-4.5-10-10-10C6.5,1030.9,2,1035.4,2,1040.9z"/>
	<path class="st1" d="M2,1039.9c0,5.5,4.5,10,10,10c5.5,0,10-4.5,10-10c0-5.5-4.5-10-10-10C6.5,1029.9,2,1034.4,2,1039.9z"/>
	<path class="st0" d="M6,1041.9v-2h9l-4-3l1-2l7,6l-7,6l-1-2l4-3H6z"/>
	<path class="st2" d="M6,1040.9v-2h9l-4-3l1-2l7,6l-7,6l-1-2l4-3H6z"/>
</g>
</svg>
