<?xml version="1.0" encoding="utf-8"?>
<!-- Generator: Adobe Illustrator 24.0.2, SVG Export Plug-In . SVG Version: 6.00 Build 0)  -->
<svg version="1.1" id="图层_1" xmlns="http://www.w3.org/2000/svg" xmlns:xlink="http://www.w3.org/1999/xlink" x="0px" y="0px" viewBox="0 0 256 256" style="enable-background:new 0 0 256 256;" xml:space="preserve">
  <style type="text/css">
    .st0{fill:url(#SVGID_1_);}
    .st1{opacity:0.2;}
    .st2{fill:#2C2C2C;}
    .st3{fill:url(#SVGID_2_);}
    .st4{fill:url(#SVGID_3_);}
    .st5{fill:url(#SVGID_4_);}
    .st6{fill:url(#SVGID_5_);}
    .st7{fill:url(#SVGID_6_);}
    .st8{fill:url(#SVGID_7_);}
    .st9{fill:url(#SVGID_8_);}
    .st10{fill:url(#SVGID_9_);}
    .st11{fill:url(#SVGID_10_);}
    .st12{fill:url(#SVGID_11_);}
    .st13{fill:url(#SVGID_12_);}
    .st14{fill:#EFEFEF;}
    .st15{opacity:0.2;fill:#2C2C2C;}
    .st16{fill:url(#SVGID_13_);}
    .st17{fill:#F8B62D;}
    .st18{fill:url(#SVGID_14_);}
    .st19{opacity:0.1;clip-path:url(#SVGID_16_);fill:#2C2C2C;}
    .st20{fill:url(#SVGID_17_);}
    .st21{fill:url(#SVGID_18_);}
    .st22{fill:#111111;}
  </style>
  <g>
    <g>
      <g>
        <linearGradient id="SVGID_1_" gradientUnits="userSpaceOnUse" x1="128" y1="9.8304" x2="128" y2="228.1821">
          <stop offset="0" style="stop-color:#54BDF1"/>
          <stop offset="1" style="stop-color:#3498DB"/>
        </linearGradient>
        <path class="st0" d="M14.2,202.2l54,44.7c7.1,5.9,17.3,5.3,22.8-1.3L238.5,67.3c5.4-6.6,4.1-16.7-3-22.6L181.5,0L14.2,202.2z"/>
        <g class="st1">
          <path class="st2" d="M238.5,62.5L90.9,240.7c-5.4,6.6-15.7,7.2-22.8,1.3l-51.6-42.7l-2.4,2.9l54,44.7c7.1,5.9,17.3,5.3,22.8-1.3
					L238.5,67.3c2.8-3.4,3.8-7.7,3.2-11.9C241.2,58,240.2,60.4,238.5,62.5z"/>
        </g>
        <g>
          <linearGradient id="SVGID_2_" gradientUnits="userSpaceOnUse" x1="27.4487" y1="192.5186" x2="50.1348" y2="192.5186">
            <stop offset="0" style="stop-color:#367899"/>
            <stop offset="1" style="stop-color:#236281"/>
          </linearGradient>
          <polygon class="st3" points="50.1,198.4 46.7,202.6 27.4,186.6 30.9,182.5 				"/>
          <linearGradient id="SVGID_3_" gradientUnits="userSpaceOnUse" x1="41.2959" y1="183.9429" x2="83.6978" y2="183.9429">
            <stop offset="0" style="stop-color:#367899"/>
            <stop offset="1" style="stop-color:#236281"/>
          </linearGradient>
          <polygon class="st4" points="83.7,198 80.3,202.1 41.3,169.9 44.7,165.8 				"/>
          <linearGradient id="SVGID_4_" gradientUnits="userSpaceOnUse" x1="55.1465" y1="159.0527" x2="77.8296" y2="159.0527">
            <stop offset="0" style="stop-color:#367899"/>
            <stop offset="1" style="stop-color:#236281"/>
          </linearGradient>
          <polygon class="st5" points="77.8,165 74.4,169.1 55.1,153.1 58.5,149 				"/>
          <linearGradient id="SVGID_5_" gradientUnits="userSpaceOnUse" x1="68.9922" y1="150.4218" x2="111.2661" y2="150.4218">
            <stop offset="0" style="stop-color:#367899"/>
            <stop offset="1" style="stop-color:#236281"/>
          </linearGradient>
          <polygon class="st6" points="111.3,164.4 107.9,168.6 69,136.4 72.4,132.3 				"/>
          <linearGradient id="SVGID_6_" gradientUnits="userSpaceOnUse" x1="82.8413" y1="125.5801" x2="105.5273" y2="125.5801">
            <stop offset="0" style="stop-color:#367899"/>
            <stop offset="1" style="stop-color:#236281"/>
          </linearGradient>
          <polygon class="st7" points="105.5,131.5 102.1,135.6 82.8,119.7 86.2,115.5 				"/>
          <linearGradient id="SVGID_7_" gradientUnits="userSpaceOnUse" x1="96.6885" y1="116.8223" x2="138.6582" y2="116.8223">
            <stop offset="0" style="stop-color:#367899"/>
            <stop offset="1" style="stop-color:#236281"/>
          </linearGradient>
          <polygon class="st8" points="138.7,130.7 135.3,134.8 96.7,102.9 100.1,98.8 				"/>
          <linearGradient id="SVGID_8_" gradientUnits="userSpaceOnUse" x1="110.5361" y1="92.1106" x2="133.2246" y2="92.1106">
            <stop offset="0" style="stop-color:#367899"/>
            <stop offset="1" style="stop-color:#236281"/>
          </linearGradient>
          <polygon class="st9" points="133.2,98 129.8,102.1 110.5,86.2 113.9,82.1 				"/>
          <linearGradient id="SVGID_9_" gradientUnits="userSpaceOnUse" x1="124.3862" y1="83.3518" x2="166.3564" y2="83.3518">
            <stop offset="0" style="stop-color:#367899"/>
            <stop offset="1" style="stop-color:#236281"/>
          </linearGradient>
          <polygon class="st10" points="166.4,97.3 163,101.4 124.4,69.5 127.8,65.3 				"/>
          <linearGradient id="SVGID_10_" gradientUnits="userSpaceOnUse" x1="138.2334" y1="58.638" x2="160.9189" y2="58.638">
            <stop offset="0" style="stop-color:#367899"/>
            <stop offset="1" style="stop-color:#236281"/>
          </linearGradient>
          <polygon class="st11" points="160.9,64.6 157.5,68.7 138.2,52.7 141.6,48.6 				"/>
          <linearGradient id="SVGID_11_" gradientUnits="userSpaceOnUse" x1="152.0811" y1="49.8821" x2="194.0537" y2="49.8821">
            <stop offset="0" style="stop-color:#367899"/>
            <stop offset="1" style="stop-color:#236281"/>
          </linearGradient>
          <polygon class="st12" points="194.1,63.8 190.7,67.9 152.1,36 155.5,31.9 				"/>
          <linearGradient id="SVGID_12_" gradientUnits="userSpaceOnUse" x1="165.9307" y1="25.1687" x2="188.6152" y2="25.1687">
            <stop offset="0" style="stop-color:#367899"/>
            <stop offset="1" style="stop-color:#236281"/>
          </linearGradient>
          <polygon class="st13" points="188.6,31.1 185.2,35.2 165.9,19.2 169.3,15.1 				"/>
        </g>
      </g>
      <g>
        <path class="st14" d="M223.4,214.3l-5.7-48.8c-0.3-2.3-1.6-5.9-3-7.8l-67.9-97.4c-1.4-2-4-2.5-5.8-1.2l-67.6,47.1
				c-1.8,1.3-2.2,3.9-0.8,5.9l67.9,97.4c1.4,2,4.2,4.5,6.2,5.6l41.3,21.5"/>
        <path class="st15" d="M72.7,108.8l67.9,97.4c1.4,2,4.2,4.5,6.2,5.6l47.3,24.7l26.6-15.7l0.3,3l-26.9,15.9L146.8,215
				c-2.1-1.1-4.9-3.7-6.2-5.6L72.7,112c-0.9-1.3-1-2.9-0.5-4.2C72.4,108.1,72.5,108.5,72.7,108.8z"/>
        <linearGradient id="SVGID_13_" gradientUnits="userSpaceOnUse" x1="46.4961" y1="225.3799" x2="81.8486" y2="225.3799" gradientTransform="matrix(-1 0 0 1 269.9297 0)">
          <stop offset="0" style="stop-color:#FEFEFE"/>
          <stop offset="1" style="stop-color:#E2E2E2"/>
        </linearGradient>
        <path class="st16" d="M188.1,236.5l35.4-22.2L188.1,236.5z"/>
        <path class="st17" d="M137.2,46.3c-2.7-3.9-9.9-3.6-16,0.7l-1.2,0.8c0,0,0.1,0,0.1-0.1L84.6,72.4L69.1,83.2
				C63,87.5,60.3,94.1,63,98l78.4,112.6l26.6-18.5l24.4-17L113.9,62.5c0,0,0,0,0,0l78.4,112.6l23.3-16.2L137.2,46.3z"/>
        <linearGradient id="SVGID_14_" gradientUnits="userSpaceOnUse" x1="76.4977" y1="173.2051" x2="76.4977" y2="248.887" gradientTransform="matrix(0.8051 -0.5609 0.6015 0.8634 -109.4319 -97.5621)">
          <stop offset="0" style="stop-color:#F15454"/>
          <stop offset="1" style="stop-color:#D93B3B"/>
        </linearGradient>
        <path class="st18" d="M96.4,11.1L44.4,47.4C38.3,51.7,37,60.5,41.6,67l16.6,23.8l74.2-51.7l-16.6-23.8
				C111.2,8.8,102.5,6.9,96.4,11.1z"/>
        <g>
          <defs>
            <path id="SVGID_15_" d="M69.1,83.2l15.5-10.8l35.4-24.7c0,0,0,0,0,0l1.1-0.8c6.1-4.2,13.3-4.6,16-0.7l78.5,112.6l-23.3,16.2
						l-24.4,17l-26.6,18.5L63,98C60.3,94.1,63,87.5,69.1,83.2z"/>
          </defs>
          <rect x="49.5" y="61.7" transform="matrix(0.8205 -0.5716 0.5716 0.8205 -22.3733 67.3508)" class="st19" width="93.2" height="15.2"/>
        </g>
        <linearGradient id="SVGID_17_" gradientUnits="userSpaceOnUse" x1="122.5912" y1="239.2511" x2="40.0321" y2="239.2511" gradientTransform="matrix(0.8051 -0.5609 0.6015 0.8634 -109.4319 -97.5621)">
          <stop offset="0" style="stop-color:#FEFEFE"/>
          <stop offset="1" style="stop-color:#E2E2E2"/>
        </linearGradient>
        <polygon class="st20" points="62.2,99 138.6,45.7 129.9,33.2 53.5,86.5 			"/>
        <linearGradient id="SVGID_18_" gradientUnits="userSpaceOnUse" x1="50.2092" y1="203.8801" x2="93.8845" y2="256.9655" gradientTransform="matrix(0.8051 -0.5609 0.6015 0.8634 -109.4319 -97.5621)">
          <stop offset="0" style="stop-color:#FEFEFE"/>
          <stop offset="1" style="stop-color:#E2E2E2"/>
        </linearGradient>
        <polygon class="st21" points="58.1,93.1 134.5,39.8 129.9,33.2 53.5,86.5 			"/>
        <path class="st2" d="M201.4,223.5c-5.3,3.7-9.8,8.1-13.3,13l36.6,19c2.1,1.1,3.5,0.1,3.3-2.2l-4.5-39.1
				C215.9,215.6,208.3,218.7,201.4,223.5z"/>
        <g class="st1">
          <path class="st22" d="M227.8,251.8c-0.5,1.1-1.6,1.4-3.1,0.6l-34.8-18.1c-0.6,0.8-1.2,1.5-1.8,2.3l36.6,19
					c2.1,1.1,3.5,0.1,3.3-2.2L227.8,251.8z"/>
        </g>
      </g>
    </g>
  </g>
</svg>
