<?xml version="1.0" encoding="UTF-8" standalone="no"?>
<svg
   xmlns:dc="http://purl.org/dc/elements/1.1/"
   xmlns:cc="http://creativecommons.org/ns#"
   xmlns:rdf="http://www.w3.org/1999/02/22-rdf-syntax-ns#"
   xmlns:svg="http://www.w3.org/2000/svg"
   xmlns="http://www.w3.org/2000/svg"
   xmlns:xlink="http://www.w3.org/1999/xlink"
   xmlns:sodipodi="http://sodipodi.sourceforge.net/DTD/sodipodi-0.dtd"
   xmlns:inkscape="http://www.inkscape.org/namespaces/inkscape"
   inkscape:export-ydpi="100"
   inkscape:export-xdpi="100"
   inkscape:export-filename="/home/alecive/Scrivania/firefoxTest1.png"
   sodipodi:docname="run.svg"
   inkscape:version="0.48.3.1 r9886"
   version="1.1"
   id="svg2"
   xxheight="512"
   xxwidth="512">
  <path
     inkscape:connector-curvature="0"
     id="path_main"
     d="m 209.37883,65.996181 c -4.81394,0.03509 -10.74787,1.845581 -19.3125,4.78125 -23.08938,7.914255 -25.01807,10.259932 -24.65625,30.031249 0.32956,18.00071 -2.47611,23.35337 -19.90625,38.03125 -15.83804,13.33672 -21.10996,15.15345 -32.46875,11.15625 -13.773709,-4.84695 -26.398337,2.62702 -35.125001,20.8125 -9.836221,20.49796 -9.176719,25.90748 4.875,39.1875 12.586219,11.89504 14.46925,18.27679 12.21875,41.46875 -1.704104,17.56347 -3.939775,21.79881 -16.46875,31.25 -14.265892,10.76158 -15.513854,16.70401 -8,38.59375 7.509397,21.87663 11.530298,25.24272 28.5,23.90625 17.831751,-1.40437 22.071711,0.61899 37.062501,17.5625 16.35305,18.48308 15.89987,17.28847 13.1875,34.34375 -3.3301,20.93889 -1.19712,24.54636 20.9375,35.4375 22.09913,10.87374 26.39471,10.35942 40.1875,-4.90625 11.27978,-12.48413 14.34889,-13.52526 36.4375,-12.28125 19.69045,1.10897 29.67979,5.15086 32.40625,13.09375 2.07663,6.04991 7.18355,11.31667 15.28125,15.78125 5.24927,2.89407 7.66803,2.56214 25.71875,-3.625 23.48421,-8.0496 26.91305,-11.71563 25.21875,-26.96875 -2.25228,-20.27827 -0.81877,-23.68947 16.3125,-38.71875 18.69573,-16.40166 20.3037,-17.09026 32.4375,-13.75 18.72855,5.15572 27.3822,1.15977 36.71875,-16.9375 10.96303,-21.2517 10.9896,-31.53516 0.0937,-39.96875 -16.00583,-12.38883 -17.87339,-16.82425 -16.4375,-39.15625 1.39738,-21.73036 4.53034,-27.10474 20.875,-35.8125 12.14093,-6.46816 13.1163,-11.71963 6.34375,-34.09375 -8.08486,-26.70982 -11.71869,-29.99852 -32.21875,-29.1875 -18.47265,0.7308 -21.2946,-0.65784 -36.3125,-17.71875 -14.17245,-16.10048 -16.6857,-22.20066 -13.40625,-32.65625 4.94646,-15.770449 -0.10777,-27.077377 -15.875,-35.499999 -23.21618,-12.401587 -29.72745,-11.835208 -44.34375,3.71875 -10.93401,11.635422 -15.28592,13.62176 -28,12.8125 -26.32688,-1.67573 -33.68357,-3.17171 -36.4687,-7.3125 -11.50314,-17.101779 -16.62225,-23.441994 -25.8125,-23.375 z m 46.625,90.593749 c 54.89576,0 99.40625,44.51049 99.40625,99.40625 0,54.89577 -44.51049,99.40625 -99.40625,99.40625 -54.89576,0 -99.40625,-44.51048 -99.40625,-99.40625 0,-54.89576 44.51049,-99.40625 99.40625,-99.40625 z"
     style="fill:#3498DB;fill-opacity:0.96862745" />
  <path
     inkscape:connector-curvature="0"
     id="path_center"
     d="M 253.21875,145.375 C 194.3975,145.70281 142.13451,200.37333 145.375,259.3125 146.30926,315.82695 196.76685,367.19771 253.65588,366.55827 305.52119,368.108 356.19183,328.85831 364.46875,277.0625 373.58557,231.85604 351.48709,181.67558 310.5,160.03125 293.15847,150.1905 273.20637,144.89309 253.21875,145.375 z"
     style="opacity:1;color:#2980B9;fill:#2980B9;fill-opacity:0.1;fill-rule:evenodd;stroke:none;stroke-width:2px;marker:none;visibility:visible;display:inline;overflow:visible;enable-background:accumulate" />
  <path
     inkscape:connector-curvature="0"
     id="path_arrow"
     d="M 224.20366,198.99534 A 4.544949,4.544949 0 0 0 220,203.51143 l 0,104.97783 a 4.544949,4.544949 0 0 0 6.81674,3.91962 l 90.88989,-52.4605 a 4.544949,4.544949 0 0 0 0,-7.89606 l -90.88989,-52.46051 a 4.544949,4.544949 0 0 0 -2.61308,-0.59647 z"
     style="color:#000000;fill:#2980B9;fill-opacity:1;fill-rule:nonzero;stroke:none;stroke-width:10;marker:none;visibility:visible;display:inline;overflow:visible;enable-background:accumulate" />
</svg>
